<svg width="442" height="77" viewBox="0 0 442 77" fill="none" xmlns="http://www.w3.org/2000/svg">
<g clip-path="url(#clip0_85_1141)">
<path d="M40.9186 74.9153L25.2314 55.6621L9.59656 72.6678C8.80356 73.5531 7.74608 74.1588 6.58128 74.395C5.41649 74.6312 4.20657 74.4853 3.13137 73.9788C2.64165 73.7516 2.18337 73.4621 1.76791 73.1173C1.17901 72.5941 0.714595 71.9459 0.40868 71.22C0.102766 70.4941 -0.0369007 69.7089 -8.86832e-05 68.9221V3.02381e-05H11.7616C12.7786 -0.0203916 13.7888 0.168589 14.7297 0.555224C15.6705 0.941859 16.5217 1.51788 17.2304 2.24749C17.9472 2.93453 18.5162 3.76062 18.9027 4.6752C19.2891 5.58979 19.4849 6.57362 19.4779 7.56647V33.577V39.0533L39.4802 20.2271H62.6141L39.4802 43.5932L64.5769 74.9153H40.9186ZM75.2448 30.2433C79.7996 25.7035 84.0299 22.7293 87.9354 21.3209C92.1784 19.8507 96.6456 19.1332 101.136 19.2008V36.5587C99.4424 36.3864 98.049 36.304 96.9552 36.304C92.9048 36.304 89.7159 37.3952 87.3886 39.5778C85.0612 41.7603 83.9 45.1589 83.905 49.7737V70.0383C83.9214 70.6757 83.8121 71.3101 83.5833 71.9052C83.3545 72.5004 83.0107 73.0446 82.5715 73.5069C82.1438 73.9661 81.6234 74.3291 81.0448 74.5719C80.4662 74.8147 79.8426 74.9318 79.2153 74.9153H64.427V24.7221C64.4122 24.1208 64.5254 23.5233 64.7592 22.9692C64.993 22.4151 65.342 21.9171 65.783 21.5082C66.1964 21.0989 66.6864 20.7751 67.225 20.5553C67.7636 20.3355 68.3402 20.224 68.9219 20.2271H82.6989L75.2448 30.2433ZM161.967 47.6911C161.967 38.9709 159.187 32.0663 153.629 26.977C148.07 21.8878 141.1 19.3431 132.72 19.3431C124.085 19.3431 116.923 21.9951 111.234 27.2991C105.546 32.6031 102.701 39.358 102.701 47.5637C102.701 55.8643 105.653 62.6641 111.556 67.9631C117.46 73.2622 125.201 75.9117 134.78 75.9117C143.071 75.9117 149.698 73.9888 154.662 70.1432C155.147 69.8 155.548 69.3528 155.837 68.8342C156.126 68.3157 156.296 67.7391 156.333 67.1466C156.388 66.5692 156.313 65.9869 156.113 65.4424C155.914 64.8979 155.595 64.405 155.179 64.0001L147.995 56.561C144.535 59.6421 140.057 61.3316 135.424 61.3032C129.266 61.3032 125.076 59.0807 122.853 54.6357C122.5 53.9324 122.199 53.2037 121.954 52.4557H161.719C161.889 49.539 161.972 47.9508 161.967 47.6911ZM121.88 41.9526C121.982 41.0908 122.132 40.2355 122.329 39.3905C124.212 34.8606 127.708 32.5932 132.817 32.5882C135.522 32.4388 138.183 33.3229 140.261 35.0615C142.339 36.8001 143.679 39.2634 144.01 41.9526H121.88ZM253.213 20.2271V20.3545L235.541 70.1731C235.023 71.5438 234.108 72.7284 232.911 73.5743C231.706 74.4569 230.248 74.9272 228.754 74.9153H215.269L204.271 42.9714L196.218 69.5364C195.73 71.1201 194.715 72.4893 193.341 73.417C191.98 74.3962 190.344 74.9206 188.666 74.9153H175.856L156.378 20.2271H169.571C170.997 20.2195 172.388 20.6684 173.541 21.5082C174.74 22.362 175.637 23.5737 176.103 24.9693L185.041 56.3663L197.244 20.2271H208.264C209.832 20.2098 211.363 20.7043 212.624 21.6356C213.892 22.5703 214.833 23.881 215.314 25.3813L224.221 56.6509L234.485 25.8608C235.047 24.2033 236.123 22.768 237.556 21.7629C238.943 20.7558 240.615 20.2178 242.328 20.2271H253.213ZM345.472 65.034L348.611 73.5069C345.294 75.6395 340.762 76.7083 335.013 76.7132C327.777 76.7132 322.198 74.9652 318.277 71.4692C314.357 67.9731 312.397 62.7515 312.397 55.8044V37.4577H304.156V23.2238H311.647L312.397 17.6725V8.98986H326.78C327.7 8.98294 328.603 9.22637 329.395 9.69406C330.164 10.1458 330.799 10.7939 331.234 11.5719C331.67 12.35 331.891 13.2299 331.874 14.1216V23.2238H343.861V37.4577H331.874V55.5422C331.874 57.5949 332.421 59.1606 333.508 60.2244C334.071 60.7636 334.738 61.1835 335.468 61.459C336.198 61.7345 336.976 61.8598 337.755 61.8276C338.325 61.8333 338.894 61.7907 339.456 61.7002C340.741 61.5073 342.055 61.7332 343.202 62.3445C344.266 62.9284 345.075 63.8869 345.472 65.034ZM416.109 30.2433C420.664 25.7035 424.894 22.7293 428.8 21.3209C433.043 19.8507 437.51 19.1332 442 19.2008V36.5587C440.307 36.3864 438.913 36.304 437.82 36.304C433.769 36.304 430.58 37.3952 428.253 39.5778C425.926 41.7603 424.764 45.1589 424.769 49.7737V70.0383C424.786 70.6757 424.676 71.3101 424.448 71.9052C424.219 72.5004 423.875 73.0446 423.436 73.5069C423.009 73.9664 422.488 74.3297 421.909 74.5726C421.331 74.8154 420.707 74.9322 420.08 74.9153H405.291V24.7221C405.277 24.1208 405.39 23.5233 405.624 22.9692C405.857 22.4151 406.206 21.9171 406.647 21.5082C407.061 21.0989 407.551 20.7751 408.089 20.5553C408.628 20.3355 409.205 20.224 409.786 20.2271H423.563L416.109 30.2433ZM388.683 20.2271V23.426C384.145 20.6214 378.907 19.1567 373.572 19.2008C365.929 19.1829 358.592 22.2009 353.174 27.5912C347.755 32.9815 344.699 40.3029 344.677 47.9458C344.701 55.5888 347.758 62.9098 353.176 68.3009C358.593 73.6919 365.929 76.7122 373.572 76.6983C378.906 76.7396 384.144 75.275 388.683 72.473V74.9153H402.46V20.2271H388.683ZM384.585 58.2391C382.482 60.3419 379.802 61.7736 376.885 62.3533C373.968 62.933 370.945 62.6346 368.197 61.4959C365.45 60.3572 363.102 58.4293 361.45 55.956C359.799 53.4827 358.918 50.5752 358.919 47.6012C358.919 43.6135 360.503 39.7892 363.323 36.9695C366.142 34.1498 369.967 32.5657 373.954 32.5657C377.942 32.5657 381.766 34.1498 384.586 36.9695C387.406 39.7892 388.99 43.6135 388.99 47.6012C389.031 49.5825 388.66 51.5508 387.902 53.3817C387.144 55.2127 386.014 56.8666 384.585 58.2391ZM301.691 55.4898C301.558 52.8894 300.615 50.3959 298.994 48.3578C297.184 46.0892 294.78 44.3672 292.05 43.3834C291.091 43.0089 290.109 42.6792 289.12 42.3871L259.499 36.9857L273.441 36.3939C273.47 36.2839 273.508 36.1762 273.553 36.0717L277.935 23.8456L282.43 36.716H300.934C300.934 36.3114 300.934 35.9668 300.86 35.5398C300.624 32.8778 299.838 30.2937 298.552 27.9509C296.891 25.0933 294.434 22.7816 291.48 21.2984C288.293 19.7128 284.87 18.6553 281.344 18.167C280.276 18.0283 279.198 17.9832 278.123 18.0321C277.958 18.0321 277.793 18.0321 277.636 17.9872H276.437C276.351 18.007 276.263 18.0195 276.175 18.0246C274.169 18.038 272.167 18.1882 270.182 18.4741C268.479 18.7457 266.815 19.2263 265.23 19.905C262.975 20.7814 260.852 21.9664 258.922 23.426C256.055 25.6084 254.129 28.8021 253.536 32.3559C253.101 34.8619 253.101 37.4239 253.536 39.9299C254.029 42.5681 255.339 44.9845 257.281 46.837C259.196 48.7117 261.519 50.1169 264.069 50.9424C266.474 51.7406 268.939 52.3468 271.44 52.7553L273.441 53.1149V53.2573C274.829 53.507 276.215 53.7567 277.598 54.0064H277.688C280.58 54.4065 283.332 55.4988 285.712 57.1903C287.382 58.831 287.382 62.6666 287.382 62.6666L276.227 56.1865L264.518 62.764L266.766 56.2464C261.886 56.2464 257.007 56.2464 252.127 56.2464C251.79 56.2464 251.828 56.4562 251.753 56.636V57.3027C251.835 57.9095 251.895 58.5238 252.007 59.1306C252.315 61.5983 253.112 63.9797 254.352 66.1352C255.791 68.3617 257.667 70.2732 259.866 71.7539C263.079 73.9697 266.751 75.4295 270.609 76.024C272.152 76.2712 273.725 76.2712 275.291 76.3836L275.868 76.4286H277.104L277.995 76.3761C280.742 76.3626 283.481 76.0892 286.176 75.5596C289.043 75.0329 291.783 73.9596 294.245 72.3981C296.793 70.7533 298.861 68.4633 300.238 65.7606C300.951 64.2353 301.395 62.5979 301.549 60.9211C301.746 59.1177 301.794 57.301 301.691 55.4898Z" fill="#333333"/>
</g>
<defs>
<clipPath id="clip0_85_1141">
<rect width="442" height="76.7132" fill="white"/>
</clipPath>
</defs>
</svg>
